<svg id="kity_svg_6" xmlns="http://www.w3.org/2000/svg" xmlns:xlink="http://www.w3.org/1999/xlink" version="1.1" width="440" height="310" style="background: rgb(251, 251, 251); visibility: visible;" viewBox="0 0 440 310"><defs id="kity_defs_7"><linearGradient id="kity_linearGradient_17" x1="0" y1="0" x2="0" y2="1"><stop id="kity_stop_18" offset="0" stop-color="rgb(255, 255, 255)"></stop><stop id="kity_stop_19" offset="1" stop-color="rgb(204, 204, 204)"></stop></linearGradient><marker id="kity_marker_4" orient="auto" refX="6" refY="0" viewBox="-7 -7 14 14" markerWidth="7" markerHeight="7" markerUnits="userSpaceOnUse"><path id="kity_path_5" fill="#999" stroke="none" d="M6,0A6,6,0,1,1,-6,0A6,6,0,1,1,6,0"></path></marker><marker id="kity_marker_2" orient="auto" refX="6" refY="0" viewBox="-7 -7 14 14" markerWidth="7" markerHeight="7" markerUnits="userSpaceOnUse"><path id="kity_path_3" fill="rgb(123, 115, 191)" stroke="none" d="M6,0A6,6,0,1,1,-6,0A6,6,0,1,1,6,0"></path></marker></defs><g id="kity_g_8"><g id="minder1" text-rendering="optimize-speed"><g id="minder_connect_group1"><path id="kity_path_31" fill="none" stroke="rgb(123, 115, 191)" stroke-width="1" d="M70.5,182.5A66,93,0,0,1,136.5,89.5"></path><path id="kity_path_39" fill="none" stroke="rgb(123, 115, 191)" stroke-width="1" d="M70.5,182.5A66,31,0,0,0,136.5,213.5"></path><path id="kity_path_47" fill="none" stroke="rgb(123, 115, 191)" stroke-width="1" d="M70.5,182.5A66,93,0,0,0,136.5,275.5"></path><path id="kity_path_214" fill="none" stroke="rgb(123, 115, 191)" stroke-width="1" d="M256.5,89.5C264.5,89.5,264.5,34.5,272.5,34.5"></path><path id="kity_path_215" fill="none" stroke="rgb(123, 115, 191)" stroke-width="1" d="M256.5,89.5C264.5,89.5,264.5,68.5,272.5,68.5"></path><path id="kity_path_216" fill="none" stroke="rgb(123, 115, 191)" stroke-width="1" d="M256.5,89.5C264.5,89.5,264.5,102.5,272.5,102.5"></path><path id="kity_path_217" fill="none" stroke="rgb(123, 115, 191)" stroke-width="1" d="M334.5,145.5C342.5,145.5,342.5,132.5,350.5,132.5"></path><path id="kity_path_218" fill="none" stroke="rgb(123, 115, 191)" stroke-width="1" d="M334.5,145.5C342.5,145.5,342.5,158.5,350.5,158.5"></path><path id="kity_path_219" fill="none" stroke="rgb(123, 115, 191)" stroke-width="1" d="M256.5,89.5C264.5,89.5,264.5,145.5,272.5,145.5"></path><path id="kity_path_222" fill="none" stroke="rgb(123, 115, 191)" stroke-width="1" d="M272.5,213.5C280.5,213.5,280.5,196.5,288.5,196.5"></path><path id="kity_path_223" fill="none" stroke="rgb(123, 115, 191)" stroke-width="1" d="M272.5,213.5C280.5,213.5,280.5,230.5,288.5,230.5"></path></g><g id="minder_node1"><path id="kity_path_66" fill="rgba(0, 0, 0, .25)" stroke="none" d="M95,103h0a85,85,0,0,1,85,85v0a85,85,0,0,1,-85,85h0a85,85,0,0,1,-85,-85v0a85,85,0,0,1,85,-85z" display="none"></path><path id="node_outline1" fill="rgb(123, 115, 191)" stroke="rgb(123, 115, 191)" d="M25.5,168.5h90a5,5,0,0,1,5,5v18a5,5,0,0,1,-5,5h-90a5,5,0,0,1,-5,-5v-18a5,5,0,0,1,5,-5z" stroke-width="3"></path><g id="node_text1" fill="white"><text id="kity_text_22" text-rendering="inherit" font-size="16" dy=".8em" y="172.09999990463257" x="32.5">own_note</text></g></g><g id="kity_g_14" display="none"><path id="kity_path_15" fill="rgba(153, 0, 0, 0.5)" stroke="none" d="M170.5,239.5h134v20h-134z"></path><path id="kity_path_16" fill="none" stroke="rgb(128, 0, 0)" d="M170.5,259.5L304.5,259.5" stroke-width="1"></path></g><g id="minder_node2" opacity="1"><path id="kity_path_62" fill="rgba(0, 0, 0, .25)" stroke="none" d="M203,37.5h0a57,57,0,0,1,57,57v0a57,57,0,0,1,-57,57h0a57,57,0,0,1,-57,-57v0a57,57,0,0,1,57,-57z" display="none"></path><g id="node_expander1" style="cursor: pointer;"><path id="kity_path_36" fill="white" stroke="gray" d="M137.5,89.5A6,6,0,1,1,125.5,89.5A6,6,0,1,1,137.5,89.5"></path><path id="kity_path_37" fill="none" stroke="gray" d="M127,89.5L136,89.5"></path></g><path id="node_outline2" fill="rgb(239, 238, 246)" stroke="rgb(123, 115, 191)" d="M141.5,73.5h112a3,3,0,0,1,3,3v26a3,3,0,0,1,-3,3h-112a3,3,0,0,1,-3,-3v-26a3,3,0,0,1,3,-3z" stroke-width="1"></path><g id="node_text2" fill="black"><text id="kity_text_33" text-rendering="inherit" font-size="14" dy=".8em" y="80.40000009536743" x="183.5">linux</text></g><g id="kity_g_82" style="cursor: pointer;"><path id="kity_path_83" fill="none" stroke="none" d="M223,81h12a2,2,0,0,1,2,2v13a2,2,0,0,1,-2,2h-12a2,2,0,0,1,-2,-2v-13a2,2,0,0,1,2,-2z"></path><path id="kity_path_84" fill="black" stroke="none" d="M232,92H226V91h6L232,92L232,92zM232,90H226V89h6V90zM232,88H226V87h6V88zM231.5,94H225V85h8v7.5M232,95l2,-2V84H224v11"></path></g><g id="node_priority7"><path id="kity_path_201" fill="#840023" stroke="none" d="M159,93c0,3.866,3.134,7,7,7h6c3.866,0,7,-3.134,7,-7V87H159V93z"></path><path id="kity_path_202" fill="#FF1200" stroke="none" d="M179,90c0,3.866,-3.134,7,-7,7H166c-3.866,0,-7,-3.134,-7,-7V87c0,-3.866,3.134,-7,7,-7h6c3.866,0,7,3.134,7,7V90z" opacity="0.8"></path><text id="kity_text_203" text-rendering="geometricPrecision" x="168" y="89.5" text-anchor="middle" font-style="italic" font-size="12" fill="white" dy="5">1</text></g></g><g id="minder_node3" opacity="1"><path id="kity_path_63" fill="rgba(0, 0, 0, .25)" stroke="none" d="M211,154.5h0a64,64,0,0,1,64,64v0a64,64,0,0,1,-64,64h0a64,64,0,0,1,-64,-64v0a64,64,0,0,1,64,-64z" display="none"></path><g id="node_expander2" style="cursor: pointer;"><path id="kity_path_44" fill="white" stroke="gray" d="M137.5,213.5A6,6,0,1,1,125.5,213.5A6,6,0,1,1,137.5,213.5"></path><path id="kity_path_45" fill="none" stroke="gray" d="M127,213.5L136,213.5"></path></g><path id="node_outline3" fill="rgb(239, 238, 246)" stroke="rgb(123, 115, 191)" d="M141.5,197.5h128a3,3,0,0,1,3,3v26a3,3,0,0,1,-3,3h-128a3,3,0,0,1,-3,-3v-26a3,3,0,0,1,3,-3z" stroke-width="1"></path><g id="node_text3" fill="black"><text id="kity_text_41" text-rendering="inherit" font-size="14" dy=".8em" y="204.40000009536743" x="183.5">python</text></g><g id="kity_g_79" style="cursor: pointer;"><path id="kity_path_80" fill="none" stroke="none" d="M239,205h12a2,2,0,0,1,2,2v13a2,2,0,0,1,-2,2h-12a2,2,0,0,1,-2,-2v-13a2,2,0,0,1,2,-2z"></path><path id="kity_path_81" fill="black" stroke="none" d="M248,216H242V215h6L248,216L248,216zM248,214H242V213h6V214zM248,212H242V211h6V212zM247.5,218H241V209h8v7.5M248,219l2,-2V208H240v11"></path></g><g id="node_priority8"><path id="kity_path_206" fill="#01467F" stroke="none" d="M159,217c0,3.866,3.134,7,7,7h6c3.866,0,7,-3.134,7,-7V211H159V217z"></path><path id="kity_path_207" fill="#0074FF" stroke="none" d="M179,214c0,3.866,-3.134,7,-7,7H166c-3.866,0,-7,-3.134,-7,-7V211c0,-3.866,3.134,-7,7,-7h6c3.866,0,7,3.134,7,7V214z" opacity="0.8"></path><text id="kity_text_208" text-rendering="geometricPrecision" x="168" y="213.5" text-anchor="middle" font-style="italic" font-size="12" fill="white" dy="5">2</text></g></g><g id="minder_node4" opacity="1"><path id="kity_path_64" fill="rgba(0, 0, 0, .25)" stroke="none" d="M204,222.5h0a58,58,0,0,1,58,58v0a58,58,0,0,1,-58,58h0a58,58,0,0,1,-58,-58v0a58,58,0,0,1,58,-58z" display="none"></path><g id="node_expander3" style="cursor: pointer;" display="none"><path id="kity_path_52" fill="white" stroke="gray" d="M137.5,275.5A6,6,0,1,1,125.5,275.5A6,6,0,1,1,137.5,275.5"></path><path id="kity_path_53" fill="none" stroke="gray"></path></g><path id="node_outline4" fill="rgb(239, 238, 246)" stroke="rgb(123, 115, 191)" d="M141.5,259.5h115a3,3,0,0,1,3,3v26a3,3,0,0,1,-3,3h-115a3,3,0,0,1,-3,-3v-26a3,3,0,0,1,3,-3z" stroke-width="1"></path><g id="node_text4" fill="black"><text id="kity_text_49" text-rendering="inherit" font-size="14" dy=".8em" y="266.40000009536743" x="183.5">work</text></g><g id="kity_g_85" style="cursor: pointer;"><path id="kity_path_86" fill="none" stroke="none" d="M226,267h12a2,2,0,0,1,2,2v13a2,2,0,0,1,-2,2h-12a2,2,0,0,1,-2,-2v-13a2,2,0,0,1,2,-2z"></path><path id="kity_path_87" fill="black" stroke="none" d="M235,278H229V277h6L235,278L235,278zM235,276H229V275h6V276zM235,274H229V273h6V274zM234.5,280H228V271h8v7.5M235,281l2,-2V270H227v11"></path></g><g id="node_priority9"><path id="kity_path_211" fill="#006300" stroke="none" d="M159,279c0,3.866,3.134,7,7,7h6c3.866,0,7,-3.134,7,-7V273H159V279z"></path><path id="kity_path_212" fill="#00AF00" stroke="none" d="M179,276c0,3.866,-3.134,7,-7,7H166c-3.866,0,-7,-3.134,-7,-7V273c0,-3.866,3.134,-7,7,-7h6c3.866,0,7,3.134,7,7V276z" opacity="0.8"></path><text id="kity_text_213" text-rendering="geometricPrecision" x="168" y="275.5" text-anchor="middle" font-style="italic" font-size="12" fill="white" dy="5">3</text></g></g><g id="minder_node7" opacity="1"><path id="kity_path_224" fill="rgba(0, 0, 0, .25)" stroke="none" d="M354.5,-39.5h0a79,79,0,0,1,79,79v0a79,79,0,0,1,-79,79h0a79,79,0,0,1,-79,-79v0a79,79,0,0,1,79,-79z" display="none"></path><g id="node_expander6" style="cursor: pointer;" display="none"><path id="kity_path_94" fill="white" stroke="gray" d="M272.5,34.5A6,6,0,1,1,260.5,34.5A6,6,0,1,1,272.5,34.5"></path><path id="kity_path_95" fill="none" stroke="gray"></path></g><path id="node_outline7" fill="none" stroke="none" d="M277.5,21.5h138a5,5,0,0,1,5,5v16a5,5,0,0,1,-5,5h-138a5,5,0,0,1,-5,-5v-16a5,5,0,0,1,5,-5z" stroke-width="3"></path><g id="node_text7" fill="black"><text id="kity_text_91" text-rendering="inherit" font-size="12" dy=".8em" y="26.700000047683716" x="302.5">linux基础知识及工具 </text></g><g id="node_progress1" display="none"><path id="kity_path_113" fill="#FFED83" stroke="none" d="M297,35A9,9,0,1,1,279,35A9,9,0,1,1,297,35"></path><path id="kity_path_114" fill="#43BC00" stroke="none" d="M288,35L297,35A9,9,0,0,0,288,26A9,9,0,0,0,279,35L288,35z"></path><path id="kity_path_115" fill="#8E8E8E" stroke="none" d="M288,28c4.418,0,8,3.582,8,8h1c0,-5.523,-3.477,-10,-9,-10S279,30.477,279,36h1C280,31.582,283.582,28,288,28z"></path><path id="kity_path_117" fill="#EEE" stroke="none" d="M303.812,42.896l-6.75,6.75l-4.5,-4.5L294.25,43.459l2.812,2.803l5.062,-5.053L303.812,42.896z" display="none"></path><path id="kity_path_116" fill="url(#kity_linearGradient_17)" stroke="none" d="M288,25C282.477,25,278,29.477,278,35c0,5.523,4.477,10,10,10s10,-4.477,10,-10C298,29.477,293.523,25,288,25zM288,43c-4.418,0,-8,-3.582,-8,-8s3.582,-8,8,-8s8,3.582,8,8S292.418,43,288,43z"></path></g><g id="node_priority1"><path id="kity_path_120" fill="#840023" stroke="none" d="M278,38c0,3.866,3.134,7,7,7h6c3.866,0,7,-3.134,7,-7V32H278V38z"></path><path id="kity_path_121" fill="#FF1200" stroke="none" d="M298,35c0,3.866,-3.134,7,-7,7H285c-3.866,0,-7,-3.134,-7,-7V32c0,-3.866,3.134,-7,7,-7h6c3.866,0,7,3.134,7,7V35z" opacity="0.8"></path><text id="kity_text_122" text-rendering="geometricPrecision" x="287" y="34.5" text-anchor="middle" font-style="italic" font-size="12" fill="white" dy="5">1</text></g></g><g id="minder_node8" opacity="1"><path id="kity_path_225" fill="rgba(0, 0, 0, .25)" stroke="none" d="M344.5,3.5h0a70,70,0,0,1,70,70v0a70,70,0,0,1,-70,70h0a70,70,0,0,1,-70,-70v0a70,70,0,0,1,70,-70z" display="none"></path><g id="node_expander7" style="cursor: pointer;" display="none"><path id="kity_path_102" fill="white" stroke="gray" d="M272.5,68.5A6,6,0,1,1,260.5,68.5A6,6,0,1,1,272.5,68.5"></path><path id="kity_path_103" fill="none" stroke="gray" d="M262,68.5L271,68.5"></path></g><path id="node_outline8" fill="none" stroke="none" d="M277.5,55.5h121a5,5,0,0,1,5,5v16a5,5,0,0,1,-5,5h-121a5,5,0,0,1,-5,-5v-16a5,5,0,0,1,5,-5z"></path><g id="node_text8" fill="black"><text id="kity_text_99" text-rendering="inherit" font-size="12" dy=".8em" y="60.700000047683716" x="302.5">服务安装配置</text></g><g id="node_priority2"><path id="kity_path_133" fill="#01467F" stroke="none" d="M278,72c0,3.866,3.134,7,7,7h6c3.866,0,7,-3.134,7,-7V66H278V72z"></path><path id="kity_path_134" fill="#0074FF" stroke="none" d="M298,69c0,3.866,-3.134,7,-7,7H285c-3.866,0,-7,-3.134,-7,-7V66c0,-3.866,3.134,-7,7,-7h6c3.866,0,7,3.134,7,7V69z" opacity="0.8"></path><text id="kity_text_135" text-rendering="geometricPrecision" x="287" y="68.5" text-anchor="middle" font-style="italic" font-size="12" fill="white" dy="5">2</text></g><g id="kity_g_196" style="cursor: pointer;"><path id="kity_path_197" fill="none" stroke="none" d="M385,60h12a2,2,0,0,1,2,2v13a2,2,0,0,1,-2,2h-12a2,2,0,0,1,-2,-2v-13a2,2,0,0,1,2,-2z"></path><path id="kity_path_198" fill="black" stroke="none" d="M394,71H388V70h6L394,71L394,71zM394,69H388V68h6V69zM394,67H388V66h6V67zM393.5,73H387V64h8v7.5M394,74l2,-2V63H386v11"></path></g></g><g id="minder_node9" opacity="1"><path id="kity_path_226" fill="rgba(0, 0, 0, .25)" stroke="none" d="M308,72.5h0a35,35,0,0,1,35,35v0a35,35,0,0,1,-35,35h0a35,35,0,0,1,-35,-35v0a35,35,0,0,1,35,-35z" display="none"></path><g id="node_expander8" style="cursor: pointer;" display="none"><path id="kity_path_110" fill="white" stroke="gray" d="M272.5,102.5A6,6,0,1,1,260.5,102.5A6,6,0,1,1,272.5,102.5"></path><path id="kity_path_111" fill="none" stroke="gray"></path></g><path id="node_outline9" fill="none" stroke="none" d="M277.5,89.5h52a5,5,0,0,1,5,5v16a5,5,0,0,1,-5,5h-52a5,5,0,0,1,-5,-5v-16a5,5,0,0,1,5,-5z"></path><g id="node_text9" fill="black"><text id="kity_text_107" text-rendering="inherit" font-size="12" dy=".8em" y="94.70000004768372" x="302.5">笔记</text></g><g id="node_priority3"><path id="kity_path_138" fill="#006300" stroke="none" d="M278,106c0,3.866,3.134,7,7,7h6c3.866,0,7,-3.134,7,-7V100H278V106z"></path><path id="kity_path_139" fill="#00AF00" stroke="none" d="M298,103c0,3.866,-3.134,7,-7,7H285c-3.866,0,-7,-3.134,-7,-7V100c0,-3.866,3.134,-7,7,-7h6c3.866,0,7,3.134,7,7V103z" opacity="0.8"></path><text id="kity_text_140" text-rendering="geometricPrecision" x="287" y="102.5" text-anchor="middle" font-style="italic" font-size="12" fill="white" dy="5">3</text></g></g><g id="minder_node14"><path id="kity_path_227" fill="rgba(0, 0, 0, .25)" stroke="none" d="M374,115h0a23,23,0,0,1,23,23v0a23,23,0,0,1,-23,23h0a23,23,0,0,1,-23,-23v0a23,23,0,0,1,23,-23z" display="none"></path><g id="node_expander13" style="cursor: pointer;" display="none"><path id="kity_path_186" fill="white" stroke="gray" d="M350.5,132.5A6,6,0,1,1,338.5,132.5A6,6,0,1,1,350.5,132.5"></path><path id="kity_path_187" fill="none" stroke="gray"></path></g><path id="node_outline14" fill="none" stroke="none" d="M355.5,123.5h27a5,5,0,0,1,5,5v8a5,5,0,0,1,-5,5h-27a5,5,0,0,1,-5,-5v-8a5,5,0,0,1,5,-5z"></path><g id="node_text14" fill="black"><text id="kity_text_183" text-rendering="inherit" font-size="12" dy=".8em" y="124.70000004768372" x="355.5">shell</text></g></g><g id="minder_node15"><path id="kity_path_228" fill="rgba(0, 0, 0, .25)" stroke="none" d="M377,139h0a25,25,0,0,1,25,25v0a25,25,0,0,1,-25,25h0a25,25,0,0,1,-25,-25v0a25,25,0,0,1,25,-25z" display="none"></path><g id="node_expander14" style="cursor: pointer;" display="none"><path id="kity_path_194" fill="white" stroke="gray" d="M350.5,158.5A6,6,0,1,1,338.5,158.5A6,6,0,1,1,350.5,158.5"></path><path id="kity_path_195" fill="none" stroke="gray"></path></g><path id="node_outline15" fill="none" stroke="none" d="M355.5,149.5h33a5,5,0,0,1,5,5v8a5,5,0,0,1,-5,5h-33a5,5,0,0,1,-5,-5v-8a5,5,0,0,1,5,-5z" stroke-width="3"></path><g id="node_text15" fill="black"><text id="kity_text_191" text-rendering="inherit" font-size="12" dy=".8em" y="150.70000004768372" x="355.5">other</text></g></g><g id="minder_node13"><path id="kity_path_229" fill="rgba(0, 0, 0, .25)" stroke="none" d="M308,115.5h0a35,35,0,0,1,35,35v0a35,35,0,0,1,-35,35h0a35,35,0,0,1,-35,-35v0a35,35,0,0,1,35,-35z" display="none"></path><g id="node_expander12" style="cursor: pointer;"><path id="kity_path_173" fill="white" stroke="gray" d="M272.5,145.5A6,6,0,1,1,260.5,145.5A6,6,0,1,1,272.5,145.5"></path><path id="kity_path_174" fill="none" stroke="gray" d="M262,145.5L271,145.5"></path></g><path id="node_outline13" fill="none" stroke="none" d="M277.5,132.5h52a5,5,0,0,1,5,5v16a5,5,0,0,1,-5,5h-52a5,5,0,0,1,-5,-5v-16a5,5,0,0,1,5,-5z"></path><g id="node_text13" fill="black"><text id="kity_text_170" text-rendering="inherit" font-size="12" dy=".8em" y="137.70000004768372" x="302.5">脚本</text></g><g id="node_priority6"><path id="kity_path_177" fill="#B25000" stroke="none" d="M278,149c0,3.866,3.134,7,7,7h6c3.866,0,7,-3.134,7,-7V143H278V149z"></path><path id="kity_path_178" fill="#FF962E" stroke="none" d="M298,146c0,3.866,-3.134,7,-7,7H285c-3.866,0,-7,-3.134,-7,-7V143c0,-3.866,3.134,-7,7,-7h6c3.866,0,7,3.134,7,7V146z" opacity="0.8"></path><text id="kity_text_179" text-rendering="geometricPrecision" x="287" y="145.5" text-anchor="middle" font-style="italic" font-size="12" fill="white" dy="5">4</text></g></g><g id="kity_g_12" display="none"><path id="kity_path_13" fill="none" stroke="rgb(112, 66, 66)" d="M173.5,264.5h128a3,3,0,0,1,3,3v26a3,3,0,0,1,-3,3h-128a3,3,0,0,1,-3,-3v-26a3,3,0,0,1,3,-3z" stroke-width="5"></path></g><g id="minder_node11"><path id="kity_path_230" fill="rgba(0, 0, 0, .25)" stroke="none" d="M345,146.5h0a55,55,0,0,1,55,55v0a55,55,0,0,1,-55,55h0a55,55,0,0,1,-55,-55v0a55,55,0,0,1,55,-55z" display="none"></path><g id="node_expander10" style="cursor: pointer;" display="none"><path id="kity_path_147" fill="white" stroke="gray" d="M288.5,196.5A6,6,0,1,1,276.5,196.5A6,6,0,1,1,288.5,196.5"></path><path id="kity_path_148" fill="none" stroke="gray"></path></g><path id="node_outline11" fill="none" stroke="none" d="M293.5,183.5h90a5,5,0,0,1,5,5v16a5,5,0,0,1,-5,5h-90a5,5,0,0,1,-5,-5v-16a5,5,0,0,1,5,-5z"></path><g id="node_text11" fill="black"><text id="kity_text_144" text-rendering="inherit" font-size="12" dy=".8em" y="188.70000004768372" x="318.5">python基础</text></g><g id="node_priority4"><path id="kity_path_151" fill="#840023" stroke="none" d="M294,200c0,3.866,3.134,7,7,7h6c3.866,0,7,-3.134,7,-7V194H294V200z"></path><path id="kity_path_152" fill="#FF1200" stroke="none" d="M314,197c0,3.866,-3.134,7,-7,7H301c-3.866,0,-7,-3.134,-7,-7V194c0,-3.866,3.134,-7,7,-7h6c3.866,0,7,3.134,7,7V197z" opacity="0.8"></path><text id="kity_text_153" text-rendering="geometricPrecision" x="303" y="196.5" text-anchor="middle" font-style="italic" font-size="12" fill="white" dy="5">1</text></g></g><g id="minder_node12"><path id="kity_path_231" fill="rgba(0, 0, 0, .25)" stroke="none" d="M337,188.5h0a47,47,0,0,1,47,47v0a47,47,0,0,1,-47,47h0a47,47,0,0,1,-47,-47v0a47,47,0,0,1,47,-47z" display="none"></path><g id="node_expander11" style="cursor: pointer;" display="none"><path id="kity_path_160" fill="white" stroke="gray" d="M288.5,230.5A6,6,0,1,1,276.5,230.5A6,6,0,1,1,288.5,230.5"></path><path id="kity_path_161" fill="none" stroke="gray"></path></g><path id="node_outline12" fill="none" stroke="none" d="M293.5,217.5h76a5,5,0,0,1,5,5v16a5,5,0,0,1,-5,5h-76a5,5,0,0,1,-5,-5v-16a5,5,0,0,1,5,-5z" stroke-width="3"></path><g id="node_text12" fill="black"><text id="kity_text_157" text-rendering="inherit" font-size="12" dy=".8em" y="222.70000004768372" x="318.5">项目笔记</text></g><g id="node_priority5"><path id="kity_path_164" fill="#01467F" stroke="none" d="M294,234c0,3.866,3.134,7,7,7h6c3.866,0,7,-3.134,7,-7V228H294V234z"></path><path id="kity_path_165" fill="#0074FF" stroke="none" d="M314,231c0,3.866,-3.134,7,-7,7H301c-3.866,0,-7,-3.134,-7,-7V228c0,-3.866,3.134,-7,7,-7h6c3.866,0,7,3.134,7,7V231z" opacity="0.8"></path><text id="kity_text_166" text-rendering="geometricPrecision" x="303" y="230.5" text-anchor="middle" font-style="italic" font-size="12" fill="white" dy="5">2</text></g></g></g></g></svg>